<mxfile host="app.diagrams.net" modified="2023-05-07T00:59:54.513Z" agent="Mozilla/5.0 (Windows NT 10.0; Win64; x64) AppleWebKit/537.36 (KHTML, like Gecko) Chrome/112.0.0.0 Safari/537.36" etag="H8nUw4owJWlm4jnO3TbI" version="21.2.9" type="github">
  <diagram name="第 1 页" id="CMdgvxdD95vAPrRYPVUL">
    <mxGraphModel dx="792" dy="1142" grid="1" gridSize="10" guides="1" tooltips="1" connect="1" arrows="1" fold="1" page="1" pageScale="1" pageWidth="827" pageHeight="1169" math="0" shadow="0">
      <root>
        <mxCell id="0" />
        <mxCell id="1" parent="0" />
        <mxCell id="_KsI66nake0O_Uesp980-34" value="&lt;br&gt;&lt;br&gt;&lt;br&gt;" style="rounded=1;whiteSpace=wrap;html=1;fillColor=#e1d5e7;strokeColor=#9673a6;align=left;" vertex="1" parent="1">
          <mxGeometry x="515" y="20" width="275" height="490" as="geometry" />
        </mxCell>
        <mxCell id="_KsI66nake0O_Uesp980-32" value="&lt;br&gt;&lt;br&gt;&lt;br&gt;" style="rounded=1;whiteSpace=wrap;html=1;fillColor=#e1d5e7;strokeColor=#9673a6;align=left;" vertex="1" parent="1">
          <mxGeometry x="310" y="20" width="190" height="330" as="geometry" />
        </mxCell>
        <mxCell id="_KsI66nake0O_Uesp980-30" value="&lt;br&gt;&lt;br&gt;&lt;br&gt;" style="rounded=1;whiteSpace=wrap;html=1;fillColor=#e1d5e7;strokeColor=#9673a6;align=left;" vertex="1" parent="1">
          <mxGeometry x="90" y="20" width="200" height="330" as="geometry" />
        </mxCell>
        <mxCell id="_KsI66nake0O_Uesp980-10" style="edgeStyle=orthogonalEdgeStyle;rounded=0;orthogonalLoop=1;jettySize=auto;html=1;entryX=-0.012;entryY=0.565;entryDx=0;entryDy=0;entryPerimeter=0;" edge="1" parent="1" source="_KsI66nake0O_Uesp980-1" target="_KsI66nake0O_Uesp980-3">
          <mxGeometry relative="1" as="geometry" />
        </mxCell>
        <mxCell id="_KsI66nake0O_Uesp980-28" style="edgeStyle=orthogonalEdgeStyle;rounded=0;orthogonalLoop=1;jettySize=auto;html=1;entryX=0.306;entryY=1.048;entryDx=0;entryDy=0;entryPerimeter=0;" edge="1" parent="1" source="_KsI66nake0O_Uesp980-1" target="_KsI66nake0O_Uesp980-8">
          <mxGeometry relative="1" as="geometry">
            <mxPoint x="450" y="360" as="targetPoint" />
            <Array as="points">
              <mxPoint x="450" y="300" />
              <mxPoint x="171" y="300" />
            </Array>
          </mxGeometry>
        </mxCell>
        <mxCell id="_KsI66nake0O_Uesp980-1" value="express&amp;nbsp;&lt;br&gt;+&lt;br&gt;node js" style="whiteSpace=wrap;html=1;aspect=fixed;fillColor=#d5e8d4;strokeColor=#82b366;" vertex="1" parent="1">
          <mxGeometry x="410" y="140" width="80" height="80" as="geometry" />
        </mxCell>
        <mxCell id="_KsI66nake0O_Uesp980-3" value="MongoDB&lt;br&gt;" style="shape=cylinder3;whiteSpace=wrap;html=1;boundedLbl=1;backgroundOutline=1;size=15;fillColor=#dae8fc;strokeColor=#6c8ebf;" vertex="1" parent="1">
          <mxGeometry x="560" y="100" width="110" height="140" as="geometry" />
        </mxCell>
        <mxCell id="_KsI66nake0O_Uesp980-23" style="edgeStyle=orthogonalEdgeStyle;rounded=0;orthogonalLoop=1;jettySize=auto;html=1;entryX=0;entryY=0.5;entryDx=0;entryDy=0;" edge="1" parent="1" source="_KsI66nake0O_Uesp980-8" target="_KsI66nake0O_Uesp980-21">
          <mxGeometry relative="1" as="geometry" />
        </mxCell>
        <mxCell id="_KsI66nake0O_Uesp980-26" style="edgeStyle=orthogonalEdgeStyle;rounded=0;orthogonalLoop=1;jettySize=auto;html=1;entryX=0.352;entryY=1.038;entryDx=0;entryDy=0;entryPerimeter=0;" edge="1" parent="1" source="_KsI66nake0O_Uesp980-8" target="_KsI66nake0O_Uesp980-1">
          <mxGeometry relative="1" as="geometry">
            <mxPoint x="190" y="330" as="targetPoint" />
            <Array as="points">
              <mxPoint x="190" y="280" />
              <mxPoint x="438" y="280" />
            </Array>
          </mxGeometry>
        </mxCell>
        <mxCell id="_KsI66nake0O_Uesp980-8" value="Vue.js Frontend" style="shape=note;whiteSpace=wrap;html=1;backgroundOutline=1;darkOpacity=0.05;fillColor=#f5f5f5;strokeColor=#666666;fontColor=#333333;" vertex="1" parent="1">
          <mxGeometry x="140" y="130" width="100" height="100" as="geometry" />
        </mxCell>
        <mxCell id="_KsI66nake0O_Uesp980-24" style="edgeStyle=orthogonalEdgeStyle;rounded=0;orthogonalLoop=1;jettySize=auto;html=1;entryX=0;entryY=0.5;entryDx=0;entryDy=0;" edge="1" parent="1" source="_KsI66nake0O_Uesp980-21" target="_KsI66nake0O_Uesp980-1">
          <mxGeometry relative="1" as="geometry" />
        </mxCell>
        <mxCell id="_KsI66nake0O_Uesp980-21" value="Jwt Auth" style="whiteSpace=wrap;html=1;aspect=fixed;fillColor=#d5e8d4;strokeColor=#82b366;" vertex="1" parent="1">
          <mxGeometry x="330" y="150" width="60" height="60" as="geometry" />
        </mxCell>
        <mxCell id="_KsI66nake0O_Uesp980-25" value="Login&lt;br&gt;" style="text;html=1;align=center;verticalAlign=middle;resizable=0;points=[];autosize=1;strokeColor=none;fillColor=none;" vertex="1" parent="1">
          <mxGeometry x="260" y="155" width="50" height="30" as="geometry" />
        </mxCell>
        <mxCell id="_KsI66nake0O_Uesp980-27" value="register" style="text;html=1;align=center;verticalAlign=middle;resizable=0;points=[];autosize=1;strokeColor=none;fillColor=none;" vertex="1" parent="1">
          <mxGeometry x="200" y="248" width="60" height="30" as="geometry" />
        </mxCell>
        <mxCell id="_KsI66nake0O_Uesp980-29" value="Sign Token" style="text;html=1;align=center;verticalAlign=middle;resizable=0;points=[];autosize=1;strokeColor=none;fillColor=none;" vertex="1" parent="1">
          <mxGeometry x="240" y="300" width="80" height="30" as="geometry" />
        </mxCell>
        <mxCell id="_KsI66nake0O_Uesp980-31" value="&lt;font style=&quot;font-size: 16px;&quot;&gt;Netifty&lt;/font&gt;" style="text;html=1;align=center;verticalAlign=middle;resizable=0;points=[];autosize=1;strokeColor=none;fillColor=none;" vertex="1" parent="1">
          <mxGeometry x="95" y="40" width="70" height="30" as="geometry" />
        </mxCell>
        <mxCell id="_KsI66nake0O_Uesp980-33" value="&lt;font style=&quot;font-size: 17px;&quot;&gt;Heroku&lt;/font&gt;" style="text;html=1;align=center;verticalAlign=middle;resizable=0;points=[];autosize=1;strokeColor=none;fillColor=none;" vertex="1" parent="1">
          <mxGeometry x="310" y="40" width="80" height="30" as="geometry" />
        </mxCell>
        <mxCell id="_KsI66nake0O_Uesp980-39" value="&lt;font style=&quot;font-size: 16px;&quot;&gt;Mongo Atlas&lt;/font&gt;" style="text;html=1;align=center;verticalAlign=middle;resizable=0;points=[];autosize=1;strokeColor=none;fillColor=none;" vertex="1" parent="1">
          <mxGeometry x="530" y="40" width="110" height="30" as="geometry" />
        </mxCell>
        <mxCell id="_KsI66nake0O_Uesp980-40" value="Users:&lt;br style=&quot;border-color: var(--border-color);&quot;&gt;&lt;span style=&quot;&quot;&gt;-_id&lt;/span&gt;&lt;br style=&quot;border-color: var(--border-color);&quot;&gt;&lt;span style=&quot;&quot;&gt;-username&lt;/span&gt;&lt;br style=&quot;border-color: var(--border-color);&quot;&gt;&lt;span style=&quot;&quot;&gt;-password&lt;/span&gt;&lt;br style=&quot;border-color: var(--border-color);&quot;&gt;&lt;span style=&quot;&quot;&gt;-budgetPlan&lt;/span&gt;&lt;br style=&quot;border-color: var(--border-color);&quot;&gt;&lt;span style=&quot;&quot;&gt;-totalAmount&lt;/span&gt;" style="text;html=1;align=left;verticalAlign=middle;resizable=0;points=[];autosize=1;strokeColor=none;fillColor=none;" vertex="1" parent="1">
          <mxGeometry x="530" y="265" width="90" height="100" as="geometry" />
        </mxCell>
        <mxCell id="_KsI66nake0O_Uesp980-41" value="BudgetPlan:&lt;br style=&quot;border-color: var(--border-color);&quot;&gt;&lt;span style=&quot;&quot;&gt;-_id&lt;/span&gt;&lt;br style=&quot;border-color: var(--border-color);&quot;&gt;&lt;span style=&quot;&quot;&gt;-name&lt;/span&gt;&lt;br style=&quot;border-color: var(--border-color);&quot;&gt;&lt;span style=&quot;&quot;&gt;-amount&lt;/span&gt;&lt;br style=&quot;border-color: var(--border-color);&quot;&gt;&lt;span style=&quot;&quot;&gt;-transactions(ref(transaction))&lt;/span&gt;&lt;br style=&quot;border-color: var(--border-color);&quot;&gt;&lt;div style=&quot;&quot;&gt;&lt;span style=&quot;background-color: initial;&quot;&gt;-creator(ref(users))&lt;/span&gt;&lt;/div&gt;" style="text;html=1;align=left;verticalAlign=middle;resizable=0;points=[];autosize=1;strokeColor=none;fillColor=none;" vertex="1" parent="1">
          <mxGeometry x="620" y="265" width="180" height="100" as="geometry" />
        </mxCell>
        <mxCell id="_KsI66nake0O_Uesp980-42" value="Transactions:&lt;br style=&quot;border-color: var(--border-color);&quot;&gt;&lt;span style=&quot;&quot;&gt;-_id&lt;/span&gt;&lt;br style=&quot;border-color: var(--border-color);&quot;&gt;&lt;span style=&quot;&quot;&gt;-title&lt;/span&gt;&lt;br style=&quot;border-color: var(--border-color);&quot;&gt;&lt;span style=&quot;&quot;&gt;-amount&lt;/span&gt;&lt;br style=&quot;border-color: var(--border-color);&quot;&gt;&lt;span style=&quot;&quot;&gt;-date&lt;/span&gt;&lt;br style=&quot;border-color: var(--border-color);&quot;&gt;&lt;span style=&quot;&quot;&gt;-creator(ref(users))&lt;/span&gt;" style="text;html=1;align=left;verticalAlign=middle;resizable=0;points=[];autosize=1;strokeColor=none;fillColor=none;" vertex="1" parent="1">
          <mxGeometry x="530" y="380" width="120" height="100" as="geometry" />
        </mxCell>
      </root>
    </mxGraphModel>
  </diagram>
</mxfile>
